HIERARCHY
ROOT Hips
{
	OFFSET 15.585500 22.159004 44.358299
	CHANNELS 6 Xposition Yposition Zposition Zrotation Xrotation Yrotation
	JOINT Chest
	{
		OFFSET -0.128500 0.160400 6.566002
		CHANNELS 6 Xposition Yposition Zposition Zrotation Xrotation Yrotation
		JOINT Chest2
		{
			OFFSET 0.000000 0.000000 3.554802
			CHANNELS 6 Xposition Yposition Zposition Zrotation Xrotation Yrotation
			JOINT Neck
			{
				OFFSET 0.000000 0.000000 8.267998
				CHANNELS 6 Xposition Yposition Zposition Zrotation Xrotation Yrotation
				JOINT Head
				{
					OFFSET 0.000000 0.000002 2.173897
					CHANNELS 6 Xposition Yposition Zposition Zrotation Xrotation Yrotation
					End Site
					{
						OFFSET 0.000000 0.000000 7.718697
					}
				}
			}
			JOINT LeftCollar
			{
				OFFSET 2.057500 0.117599 5.946301
				CHANNELS 6 Xposition Yposition Zposition Zrotation Xrotation Yrotation
				JOINT LeftShoulder
				{
					OFFSET 4.957699 0.000000 0.000000
					CHANNELS 6 Xposition Yposition Zposition Zrotation Xrotation Yrotation
					JOINT LeftElbow
					{
						OFFSET 0.000000 0.000000 -8.465500
						CHANNELS 6 Xposition Yposition Zposition Zrotation Xrotation Yrotation
						JOINT LeftWrist
						{
							OFFSET 0.000000 -0.000002 -14.594898
							CHANNELS 6 Xposition Yposition Zposition Zrotation Xrotation Yrotation
							End Site
							{
								OFFSET 0.000000 0.000000 -2.173901
							}
						}
					}
				}
			}
			JOINT RightCollar
			{
				OFFSET -3.048500 -0.728800 6.604099
				CHANNELS 6 Xposition Yposition Zposition Zrotation Xrotation Yrotation
				JOINT RightShoulder
				{
					OFFSET -3.710299 0.000000 0.000000
					CHANNELS 6 Xposition Yposition Zposition Zrotation Xrotation Yrotation
					JOINT RightElbow
					{
						OFFSET 0.000000 0.000000 -10.450901
						CHANNELS 6 Xposition Yposition Zposition Zrotation Xrotation Yrotation
						JOINT RightWrist
						{
							OFFSET 0.000000 0.000000 -12.539200
							CHANNELS 6 Xposition Yposition Zposition Zrotation Xrotation Yrotation
							End Site
							{
								OFFSET 0.000000 -0.000002 -2.173901
							}
						}
					}
				}
			}
		}
	}
	JOINT LeftHip
	{
		OFFSET 2.442599 -0.601400 -2.767502
		CHANNELS 6 Xposition Yposition Zposition Zrotation Xrotation Yrotation
		JOINT LeftKnee
		{
			OFFSET 0.000000 -0.000002 -17.033703
			CHANNELS 6 Xposition Yposition Zposition Zrotation Xrotation Yrotation
			JOINT LeftAnkle
			{
				OFFSET 0.000000 -0.000002 -19.318800
				CHANNELS 6 Xposition Yposition Zposition Zrotation Xrotation Yrotation
				End Site
				{
					OFFSET 0.000000 -8.281900 0.000000
				}
			}
		}
	}
	JOINT RightHip
	{
		OFFSET -3.126200 -0.601400 -2.283501
		CHANNELS 6 Xposition Yposition Zposition Zrotation Xrotation Yrotation
		JOINT RightKnee
		{
			OFFSET 0.000000 -0.000002 -16.919401
			CHANNELS 6 Xposition Yposition Zposition Zrotation Xrotation Yrotation
			JOINT RightAnkle
			{
				OFFSET 0.000000 -0.000002 -18.035900
				CHANNELS 6 Xposition Yposition Zposition Zrotation Xrotation Yrotation
				End Site
				{
					OFFSET 0.000000 -9.230099 0.000000
				}
			}
		}
	}
}
MOTION
Frames: 7
Frame Time: 0.041667
25.445799 23.789206 42.998600 -7.727030 2.331062 3.295931 -0.128502 0.160403 6.565998 8.704251 7.471798 -5.852892 -0.000001 0.000001 3.554810 2.027247 -5.975309 -0.035287 0.000003 -0.000004 8.268009 -2.254454 7.916711 3.764866 0.000000 -0.000000 2.173897 0.187014 2.493471 0.452730 2.057503 0.117597 5.946314 -16.590381 -0.791668 3.598837 4.957699 0.000004 0.000005 10.591436 9.645653 -63.723247 -0.000007 0.000007 -8.465498 -117.748650 -178.906396 -179.583350 -0.000001 -0.000003 -14.594900 49.439774 -15.636484 16.593323 -3.048499 -0.728801 6.604107 27.927163 -2.197954 -6.913941 -3.710297 -0.000003 0.000006 -14.330661 -5.842777 69.421278 0.000005 -0.000002 -10.450895 -57.405978 0.467221 0.627310 0.000004 -0.000002 -12.539201 -53.235819 4.091770 -2.140755 2.442600 -0.601394 -2.767504 1.895722 -13.393736 1.023590 0.000000 -0.000005 -17.033709 -21.874226 26.207801 20.152313 0.000002 0.000001 -19.318800 32.802848 11.631832 13.421493 -3.126201 -0.601398 -2.283505 -131.622171 -37.030147 -67.579613 0.000001 -0.000006 -16.919392 -1.993818 19.901766 16.557304 -0.000002 -0.000003 -18.035898 169.742727 81.488726 -117.608057
25.468998 23.779003 43.017101 -7.819148 2.402931 3.410843 -0.128498 0.160400 6.566002 8.807926 7.182082 -6.017806 -0.000004 -0.000002 3.554798 2.020369 -5.953069 -0.032513 -0.000001 0.000002 8.268002 -2.264735 7.939502 3.831684 0.000002 0.000007 2.173896 0.197091 2.497142 0.450080 2.057504 0.117603 5.946310 -16.597981 -0.754098 3.670481 4.957696 0.000002 0.000007 10.778899 9.393140 -64.238353 0.000001 0.000010 -8.465498 -117.314564 -178.863175 -179.559540 -0.000000 -0.000001 -14.594894 49.587706 -15.464375 15.899692 -3.048503 -0.728798 6.604102 27.915700 -2.005981 -6.890869 -3.710299 0.000001 -0.000008 -14.475828 -6.262419 69.904705 -0.000003 -0.000002 -10.450893 -58.201907 0.368177 0.476748 0.000005 0.000004 -12.539197 -52.886524 3.855838 -1.685885 2.442599 -0.601397 -2.767495 1.582136 -13.325576 0.856870 0.000003 -0.000004 -17.033707 -21.481524 25.999591 20.045533 0.000000 -0.000000 -19.318798 32.829700 11.685034 13.451494 -3.126197 -0.601403 -2.283500 -133.067958 -35.564723 -68.684184 -0.000002 -0.000004 -16.919395 -2.581803 19.117315 16.401854 -0.000002 -0.000002 -18.035898 173.095053 81.255182 -119.450801
25.491196 23.769407 43.034702 -7.910793 2.472702 3.520567 -0.128500 0.160403 6.566003 8.909340 6.904266 -6.173481 0.000003 0.000002 3.554804 2.018192 -5.934134 -0.029330 -0.000001 0.000004 8.268004 -2.275672 7.955639 3.897995 0.000001 0.000000 2.173900 0.213608 2.501550 0.443948 2.057503 0.117603 5.946304 -16.601195 -0.721147 3.743863 4.957695 0.000003 0.000013 10.949590 9.128709 -64.750856 -0.000007 0.000006 -8.465507 -116.883443 -178.815049 -179.526181 0.000000 -0.000012 -14.594894 49.743626 -15.303915 15.203596 -3.048502 -0.728801 6.604105 27.900457 -1.821391 -6.883693 -3.710296 0.000003 0.000001 -14.611747 -6.704418 70.393910 0.000000 -0.000002 -10.450887 -59.043878 0.258566 0.408709 0.000001 -0.000004 -12.539196 -52.455648 3.645435 -1.265129 2.442600 -0.601397 -2.767497 1.289639 -13.263397 0.707427 -0.000001 -0.000004 -17.033699 -21.115004 25.805809 19.936154 0.000001 0.000000 -19.318798 32.867482 11.742972 13.427640 -3.126200 -0.601399 -2.283493 -134.446536 -34.084413 -69.730139 0.000002 -0.000005 -16.919399 -3.112555 18.390539 16.207434 -0.000002 0.000001 -18.035900 176.070720 81.015811 -121.013480
25.512501 23.760303 43.051605 -8.002826 2.537732 3.622055 -0.128501 0.160399 6.566004 9.009109 6.643481 -6.315598 -0.000003 0.000001 3.554809 2.020483 -5.919316 -0.026038 0.000005 0.000000 8.268006 -2.287186 7.962601 3.961040 0.000001 0.000006 2.173908 0.236797 2.506787 0.433622 2.057506 0.117605 5.946312 -16.598082 -0.694345 3.815159 4.957699 0.000006 0.000006 11.102947 8.856144 -65.259787 0.000000 0.000003 -8.465501 -116.455081 -178.763413 -179.483820 0.000001 -0.000008 -14.594891 49.901400 -15.157037 14.513240 -3.048499 -0.728801 6.604107 27.881811 -1.646433 -6.891440 -3.710301 0.000001 -0.000005 -14.733338 -7.174274 70.883437 0.000001 0.000000 -10.450894 -59.785254 0.141955 0.419212 0.000001 -0.000004 -12.539191 -52.101137 3.571752 -0.897165 2.442600 -0.601396 -2.767494 -1.598292 -13.021713 -0.064708 -0.000002 -0.000003 -17.033707 -18.209040 25.426658 19.800976 -0.000001 -0.000003 -19.318802 32.911830 11.806839 13.346551 -3.126201 -0.601403 -2.283498 -135.750761 -32.609594 -70.715722 0.000003 -0.000004 -16.919407 -3.592638 17.721848 15.977476 -0.000006 -0.000001 -18.035898 178.856235 80.755300 -122.502735
25.533096 23.751705 43.067997 -8.096520 2.596342 3.714008 -0.128502 0.160401 6.566003 9.108573 6.403088 -6.441975 -0.000001 -0.000002 3.554809 2.026527 -5.909419 -0.022780 0.000002 0.000001 8.268002 -2.299349 7.958940 4.018700 -0.000000 0.000004 2.173899 0.266084 2.512240 0.418628 2.057504 0.117601 5.946308 -16.587647 -0.674339 3.881233 4.957695 0.000003 0.000009 11.238964 8.578793 -65.763780 -0.000004 0.000006 -8.465502 -116.030270 -178.709878 -179.434151 -0.000005 -0.000007 -14.594893 50.056759 -15.025595 13.837643 -3.048501 -0.728800 6.604102 27.860704 -1.482780 -6.912776 -3.710297 0.000003 0.000007 -15.921586 -10.722780 71.223990 0.000000 -0.000000 -10.450895 -57.305219 0.041995 0.301833 0.000006 -0.000006 -12.539186 -51.703183 3.425758 -0.488168 2.442597 -0.601395 -2.767499 -1.528886 -12.979986 -0.096182 -0.000003 -0.000002 -17.033707 -18.181415 25.279618 19.684592 -0.000001 0.000001 -19.318802 32.957456 11.877079 13.211888 -3.126200 -0.601400 -2.283499 -136.974690 -31.159050 -71.640352 -0.000003 -0.000004 -16.919403 -4.029507 17.110339 15.715683 -0.000004 -0.000000 -18.035898 181.106359 80.519768 -123.547631
25.552998 23.743406 43.084003 -8.192871 2.647690 3.796441 -0.128503 0.160398 6.566008 9.208816 6.184271 -6.552206 -0.000001 -0.000004 3.554801 2.035334 -5.904238 -0.019571 0.000001 0.000004 8.267999 -2.312022 7.943914 4.069150 0.000000 -0.000003 2.173901 0.300813 2.517091 0.398198 2.057504 0.117603 5.946311 -16.569947 -0.660974 3.939515 4.957693 0.000005 0.000008 11.358640 8.299442 -66.261018 -0.000009 0.000004 -8.465507 -115.610009 -178.656275 -179.379318 0.000003 0.000000 -14.594893 49.850440 -14.941990 13.194722 -3.048499 -0.728796 6.604103 27.838195 -1.331057 -6.944809 -3.710302 -0.000001 0.000004 -15.782597 -10.642039 71.735305 -0.000004 0.000001 -10.450896 -58.624518 -0.065710 0.230865 0.000002 0.000006 -12.539192 -51.342798 3.285149 -0.074274 2.442599 -0.601398 -2.767496 -1.453775 -12.935079 -0.114619 0.000000 -0.000005 -17.033703 -18.142509 25.138692 19.561529 -0.000002 0.000000 -19.318800 32.999796 11.953187 13.033263 -3.126204 -0.601404 -2.283496 -138.113856 -29.749630 -72.504323 0.000001 -0.000004 -16.919403 -4.429517 16.554292 15.424638 0.000001 -0.000001 -18.035892 183.043196 80.291333 -124.380381
25.572397 23.735607 43.099804 -8.292567 2.691609 3.870450 -0.128501 0.160396 6.566001 9.310891 5.986704 -6.647834 -0.000001 -0.000006 3.554808 2.045764 -5.903581 -0.016830 0.000002 -0.000001 8.267998 -2.324999 7.917583 4.111070 0.000002 0.000001 2.173888 0.339563 2.520710 0.372898 2.057503 0.117597 5.946303 -16.545807 -0.653339 3.988194 4.957698 0.000005 0.000014 11.461346 8.018279 -66.698129 0.000004 0.000004 -8.465507 -115.197260 -178.559218 -179.346151 -0.000000 0.000010 -14.594894 50.111930 -14.830870 12.570906 -3.048502 -0.728804 6.604092 27.815360 -1.191614 -6.984116 -3.710294 0.000000 0.000008 -15.639801 -10.564528 72.237686 -0.000003 0.000002 -10.450891 -59.867161 -0.176393 0.158455 0.000002 0.000001 -12.539191 -51.036536 3.153178 0.314900 2.442600 -0.601394 -2.767501 -1.372883 -12.884978 -0.122595 -0.000000 -0.000004 -17.033703 -18.088696 25.000861 19.431043 0.000000 0.000001 -19.318802 33.034623 12.034118 12.824205 -3.126199 -0.601402 -2.283497 -139.166115 -28.394539 -73.308755 0.000001 -0.000003 -16.919395 -4.798189 16.051600 15.107581 -0.000001 -0.000003 -18.035894 184.684203 80.072350 -125.019373
